<?xml version="1.0" standalone="no"?><!DOCTYPE svg PUBLIC "-//W3C//DTD SVG 1.1//EN" "http://www.w3.org/Graphics/SVG/1.1/DTD/svg11.dtd"><svg t="1659621120261" class="icon" viewBox="0 0 1024 1024" version="1.1" xmlns="http://www.w3.org/2000/svg" p-id="5030" width="25" height="25" xmlns:xlink="http://www.w3.org/1999/xlink"><defs><style type="text/css">@font-face { font-family: feedback-iconfont; src: url("//at.alicdn.com/t/font_1031158_u69w8yhxdu.woff2?t=1630033759944") format("woff2"), url("//at.alicdn.com/t/font_1031158_u69w8yhxdu.woff?t=1630033759944") format("woff"), url("//at.alicdn.com/t/font_1031158_u69w8yhxdu.ttf?t=1630033759944") format("truetype"); }
</style></defs><path d="M806.912 667.648q17.408 0 29.184 7.168t18.944 18.432 10.24 25.6 3.072 28.672l0 71.68q0 26.624-17.92 46.592t-50.688 19.968l-700.416 0q-22.528 0-41.472-16.384t-18.944-44.032l0-84.992q0-31.744 19.968-52.224t48.64-20.48l699.392 0zM799.744 414.72q18.432 0 31.232 6.656t21.504 16.896 12.288 23.552 3.584 25.6l0 57.344q0 29.696-15.872 49.664t-54.784 19.968l-693.248 0q-27.648 0-46.592-19.968t-18.944-44.544l0-71.68q0-26.624 17.92-45.056t44.544-18.432l698.368 0zM910.336 142.336q28.672 0 48.128 23.04t19.456 52.736l0 62.464q0 32.768-18.944 56.832t-48.64 24.064l-697.344 0q-26.624 0-46.08-18.944t-19.456-45.568l0-88.064q0-28.672 17.408-47.616t44.032-18.944l701.44 0z" p-id="5031" fill="#ffffff"></path></svg>