<?xml version="1.0" standalone="no"?><!DOCTYPE svg PUBLIC "-//W3C//DTD SVG 1.1//EN" "http://www.w3.org/Graphics/SVG/1.1/DTD/svg11.dtd"><svg t="1659621320489" class="icon" viewBox="0 0 1161 1024" version="1.1" xmlns="http://www.w3.org/2000/svg" p-id="7280" xmlns:xlink="http://www.w3.org/1999/xlink" width="28.3447265625" height="25"><defs><style type="text/css">@font-face { font-family: feedback-iconfont; src: url("//at.alicdn.com/t/font_1031158_u69w8yhxdu.woff2?t=1630033759944") format("woff2"), url("//at.alicdn.com/t/font_1031158_u69w8yhxdu.woff?t=1630033759944") format("woff"), url("//at.alicdn.com/t/font_1031158_u69w8yhxdu.ttf?t=1630033759944") format("truetype"); }
</style></defs><path d="M975.474627 598.153552l1.543642 1.742329 167.416358 175.608358c11.997612 14.152597 12.593672 36.802866 1.803463 51.811343l-1.803463 2.292537-167.416358 175.608359c-19.685254 23.231045-53.798209 7.779343-55.479403-24.759403l-0.061135-2.537075v-106.404299H669.48203c-26.807403 0-48.922746-20.816239-50.420537-46.828895l-0.076418-2.812179v-39.630328c0-26.348896 21.183045-48.082149 47.638925-49.549374l2.85803-0.076418h251.995701v-105.915223c0-33.394627 33.593313-50.282985 53.996896-28.549732zM1069.850746 348.251701v238.622568l-44.062567-46.232836c-69.815403-79.505194-188.370149-21.397015-188.370149 78.404776v29.512597H661.824955c-69.693134 0-126.914866 56.243582-126.914865 126.043701v39.630329l0.061134 3.866746A124.652896 124.652896 0 0 0 557.850746 886.447761L91.701493 886.447761a91.701493 91.701493 0 0 1-91.701493-91.701492V348.251701h1069.850746zM382.089552 664.835821H168.119403a45.850746 45.850746 0 0 0-45.774328 43.160836L122.268657 710.686567v3.270687a45.850746 45.850746 0 0 0 43.160836 45.774328l2.68991 0.076418h213.970149a45.850746 45.850746 0 0 0 45.774329-43.145552l0.076418-2.705194V710.686567a45.850746 45.850746 0 0 0-45.850747-45.850746zM978.149254 0a91.701493 91.701493 0 0 1 91.701492 91.701493v98.258149H0V91.701493a91.701493 91.701493 0 0 1 91.701493-91.701493h886.447761z" fill="#ffffff" p-id="7281"></path></svg>